<svg xmlns="http://www.w3.org/2000/svg" width="35.413" height="35" viewBox="0 0 35.413 35">
  <path id="drone_1" data-name="drone 1" d="M41.876,16.819a9.514,9.514,0,0,0-2.035-1.379,1.934,1.934,0,0,0-.034-1.709,10.191,10.191,0,0,0,1.826-1.368c1.306-1.2,2.128-2.431,1.839-2.743s-1.581.406-2.888,1.606a10.17,10.17,0,0,0-1.52,1.709,1.935,1.935,0,0,0-1.939-.055,9.578,9.578,0,0,0-1.705-1.826c-1.351-1.152-2.668-1.822-2.946-1.5s.591,1.523,1.942,2.671a9.693,9.693,0,0,0,1.963,1.344,1.961,1.961,0,0,0-.3,1.042,1.941,1.941,0,0,0,.138.722,28.167,28.167,0,0,1-7.481,5.741,6.175,6.175,0,0,0-5.16-.213c-2.764-1.21-6.054-4.239-7.553-5.707a2.006,2.006,0,0,0,.076-.54,1.944,1.944,0,0,0-.213-.89,9.45,9.45,0,0,0,1.946-1.53c1.265-1.245,2.046-2.5,1.746-2.805s-1.568.457-2.833,1.7a9.64,9.64,0,0,0-1.533,1.877,1.953,1.953,0,0,0-1.9-.148l.031-.024a9.922,9.922,0,0,0-1.289-1.949c-1.124-1.372-2.3-2.266-2.633-1.994s.313,1.6,1.437,2.974a10.057,10.057,0,0,0,1.64,1.63l.1-.076a1.95,1.95,0,0,0-.23,2.125,9.615,9.615,0,0,0-1.929,1.52c-1.265,1.245-2.046,2.5-1.746,2.8s1.568-.457,2.833-1.7a9.831,9.831,0,0,0,1.526-1.863,1.965,1.965,0,0,0,1.08.323,1.9,1.9,0,0,0,.657-.113,28.25,28.25,0,0,1,5.762,7.065,6.142,6.142,0,0,0-.8,3.049,6.21,6.21,0,0,0,.55,2.551c-1.2,2.709-4.1,5.906-5.576,7.433a1.968,1.968,0,0,0-1.578.179A9.185,9.185,0,0,0,11.42,34.81c-1.327-1.176-2.633-1.874-2.915-1.554s.564,1.533,1.891,2.709a9.4,9.4,0,0,0,2.066,1.447,1.961,1.961,0,0,0-.3,1.042,1.921,1.921,0,0,0,.2.842,10.041,10.041,0,0,0-1.826,1.351c-1.313,1.193-2.149,2.413-1.86,2.73s1.585-.4,2.9-1.585a10.248,10.248,0,0,0,1.516-1.674,1.965,1.965,0,0,0,2.073.021,10,10,0,0,0,1.581,1.722c1.327,1.176,2.63,1.874,2.915,1.554s-.564-1.533-1.891-2.709a10,10,0,0,0-1.877-1.351,1.975,1.975,0,0,0,.217-.9,1.908,1.908,0,0,0-.1-.615,28.074,28.074,0,0,1,7.058-5.769,6.173,6.173,0,0,0,5.748-.01c2.723,1.375,5.841,4.421,7.216,5.848a1.928,1.928,0,0,0-.079.547,1.97,1.97,0,0,0,.234.932,9.9,9.9,0,0,0-1.839,1.52c-1.241,1.269-2,2.537-1.691,2.836s1.557-.488,2.8-1.757a9.947,9.947,0,0,0,1.458-1.843,1.969,1.969,0,0,0,1.007.278,1.944,1.944,0,0,0,1.028-.3A10.217,10.217,0,0,0,40.47,41.8c1.317,1.186,2.616,1.894,2.9,1.578s-.55-1.537-1.867-2.726a10.091,10.091,0,0,0-1.826-1.341,1.932,1.932,0,0,0-.021-1.777,9.32,9.32,0,0,0,1.98-1.6c1.241-1.269,2-2.541,1.691-2.836s-1.557.488-2.8,1.757a9.534,9.534,0,0,0-1.526,1.96,1.952,1.952,0,0,0-1.093-.33,1.919,1.919,0,0,0-.646.11,28.028,28.028,0,0,1-5.724-7.436,6.174,6.174,0,0,0-.048-5.243c1.458-2.847,4.762-6.116,6.1-7.378a1.945,1.945,0,0,0,.45.052,1.968,1.968,0,0,0,1.145-.368A9.6,9.6,0,0,0,40.862,18c1.351,1.152,2.668,1.822,2.946,1.5s-.584-1.526-1.932-2.678M14.143,15.032a.443.443,0,1,1,.443-.443.445.445,0,0,1-.443.443m.024,23.832a.443.443,0,1,1,.443-.443.445.445,0,0,1-.443.443m23.742-.853a.443.443,0,1,1-.443.443.445.445,0,0,1,.443-.443m.158-22.979a.443.443,0,1,1,.443-.443.445.445,0,0,1-.443.443" transform="translate(-8.449 -8.809)" fill="#1da912"/>
</svg>
