<svg id="drone_3" data-name="drone 3" xmlns="http://www.w3.org/2000/svg" width="38.098" height="40.167" viewBox="0 0 38.098 40.167">
  <path id="Path_16" data-name="Path 16" d="M45.348,37.18l1.425-2.369a2.507,2.507,0,0,0,0-2.562l-1.465-2.44,6.341-3.77-1.777-2.961-6.317,3.766L42.5,25.079a2.5,2.5,0,0,0-2.152-1.216H37.472V16.05H34.009v7.8H31.593a2.5,2.5,0,0,0-2.152,1.216l-1.184,1.974L21.6,23.093,19.82,26.054,26.484,30l-1.35,2.25a2.487,2.487,0,0,0,0,2.562L26.445,37,19.82,40.95,21.6,43.911l6.621-3.948,1.212,2.021A2.5,2.5,0,0,0,31.581,43.2H34v7.718H37.46V43.185h2.854a2.5,2.5,0,0,0,2.152-1.216l1.113-1.828,6.226,3.7L38.486,51.168l.276,1.232,12.689-5.768-1.484-2.9h0l1.682-2.807Z" transform="translate(-16.44 -13.409)" fill="#1da912"/>
  <path id="Path_17" data-name="Path 17" d="M66.109,8.622,55.181,0,53.27,2.641,65.134,9.432Z" transform="translate(-32.239)" fill="#1da912"/>
  <path id="Path_18" data-name="Path 18" d="M88.23,33.23l.754,13.613,1.212.371,1.3-13.83Z" transform="translate(-53.397 -20.111)" fill="#1da912"/>
  <path id="Path_19" data-name="Path 19" d="M11.9,78.575l10.9,8.658L24.719,84.6,12.875,77.77Z" transform="translate(-7.202 -47.066)" fill="#1da912"/>
  <path id="Path_20" data-name="Path 20" d="M2.432,33.08,0,46.756l3.241.422L3.608,33.55Z" transform="translate(0 -20.02)" fill="#1da912"/>
  <path id="Path_21" data-name="Path 21" d="M23.582,4.96l-.253-1.24-12.8,5.5,1.429,2.929Z" transform="translate(-6.373 -2.251)" fill="#1da912"/>
</svg>
