<svg xmlns="http://www.w3.org/2000/svg" width="57.022" height="47.375" viewBox="0 0 57.022 47.375">
  <g id="drone_4" data-name="drone 4" transform="translate(-0.009 0.006)">
    <path id="Path_22" data-name="Path 22" d="M33.376,22.421l-3.567-2.833-1.462-2.614-3.4-1.34-1.432.8S17.3,13.28,15.54,12.306s-2.823,1.569-2.823,1.569-5.1,8.668-6.217,10.6,1.147,3.363,1.147,3.363l6.895,4.148-.51,1.845,4.184,2.359,1.233-.708,4.836,2.074.591,1.055,11.144.056.989-1.452,2.451-3.5.933-1.254L34.68,22.269ZM24.7,17.137l3,1.274-1.671,3.144s-3.032-1.33-3.2-1.483ZM7.779,25.887l6.512-11.573,5.768,2.548,2.283.275-7.883,13.1-.311.173-.836-1.493Zm10.375,8.9-2.726-1.656,1.58-3.164s2.894,1.952,3.144,2.11-2,2.711-2,2.711m.138-6.038,3.684-7.134,3.19,1.32L20.84,30.065Zm6.895,7.644-1.218-.866,7.374-12.23,1.452.545Z" transform="translate(-6.18 -12.09)" fill="#1da912"/>
    <path id="Path_23" data-name="Path 23" d="M77.057,80.182h-.031a.4.4,0,0,1-.51-.2L65.036,54.963a.4.4,0,1,1,.734-.331L77.23,79.672a.4.4,0,0,1-.168.51" transform="translate(-35.022 -32.84)" fill="#1da912"/>
    <path id="Path_24" data-name="Path 24" d="M80.423,75.527a.413.413,0,0,1-.51-.112L65.105,55.031a.4.4,0,0,1,.092-.566.4.4,0,0,1,.561.092L80.566,74.941a.408.408,0,0,1-.087.566l-.041.025" transform="translate(-35.036 -32.837)" fill="#1da912"/>
    <path id="Path_25" data-name="Path 25" d="M83.3,70.886a.4.4,0,0,1-.464-.051L65.181,55.145a.4.4,0,0,1,.51-.606l17.7,15.695a.4.4,0,0,1,.036.571.423.423,0,0,1-.107.082" transform="translate(-35.066 -32.885)" fill="#1da912"/>
    <path id="Path_26" data-name="Path 26" d="M86.85,68.082a.4.4,0,0,1-.408,0L67.211,56.52a.4.4,0,0,1-.138-.555.413.413,0,0,1,.555-.138L86.881,67.384a.4.4,0,0,1,.138.555.362.362,0,0,1-.148.143" transform="translate(-36.01 -33.515)" fill="#1da912"/>
    <path id="Path_27" data-name="Path 27" d="M86.341,63.069a.4.4,0,0,1-.326.036L62.63,55.461a.408.408,0,0,1,.255-.769L86.27,62.335a.4.4,0,0,1,.255.51.367.367,0,0,1-.183.224" transform="translate(-33.743 -32.981)" fill="#1da912"/>
    <path id="Path_28" data-name="Path 28" d="M89.824,58.737a.418.418,0,0,1-.234.051l-26.3-2.344a.4.4,0,0,1,.071-.805l26.3,2.344a.4.4,0,0,1,.367.438.392.392,0,0,1-.2.316" transform="translate(-34.001 -33.449)" fill="#1da912"/>
    <path id="Path_29" data-name="Path 29" d="M89.524,51.9a.458.458,0,0,1-.163.046L60.7,54.349a.4.4,0,1,1-.061-.805l28.654-2.405a.408.408,0,0,1,.234.759" transform="translate(-32.701 -31.243)" fill="#1da912"/>
  </g>
</svg>
