<svg xmlns="http://www.w3.org/2000/svg" width="52.8" height="37.949" viewBox="0 0 52.8 37.949">
  <g id="drone_2" data-name="drone 2" transform="translate(0 0.004)">
    <path id="Path_14" data-name="Path 14" d="M36.523,45l6.764-10.46a10.236,10.236,0,1,0-17.22,0L32.787,45c-12.2.194-24.527,2.227-24.527,5.848,0,3.811,13.6,5.868,26.4,5.868s26.4-2.057,26.4-5.868C61.085,47.22,48.747,45.183,36.523,45ZM30.117,28.346a4.553,4.553,0,1,1,4.553,4.548,4.553,4.553,0,0,1-4.553-4.548ZM34.67,55.778c-15.018,0-25.483-2.6-25.483-4.936s9.863-4.782,24.178-4.931l.4.638v.035a1.066,1.066,0,0,0,1.494.264.951.951,0,0,0,.264-.264v-.035l.408-.638c14.346.139,24.233,2.665,24.233,4.931s-10.48,4.941-25.5,4.941Z" transform="translate(-8.26 -18.77)" fill="#1da912"/>
    <path id="Path_15" data-name="Path 15" d="M47.494,56.52l.613,2.386H36.2l.613-2.386H34.09l-2.73,7.038H35l.7-2.73H48.6l.7,2.73h3.641l-2.73-7.038Z" transform="translate(-15.739 -28.369)" fill="#1da912"/>
  </g>
</svg>
