<svg xmlns="http://www.w3.org/2000/svg" width="103.008" height="101.806" viewBox="0 0 103.008 101.806">
  <path id="drone_1" data-name="drone 1" d="M105.68,32.11a27.673,27.673,0,0,0-5.92-4.01,5.624,5.624,0,0,0-.1-4.97,29.642,29.642,0,0,0,5.31-3.98c3.8-3.49,6.19-7.07,5.35-7.98s-4.6,1.18-8.4,4.67a29.581,29.581,0,0,0-4.42,4.97,5.628,5.628,0,0,0-5.64-.16,27.859,27.859,0,0,0-4.96-5.31c-3.93-3.35-7.76-5.3-8.57-4.35s1.72,4.43,5.65,7.77a28.194,28.194,0,0,0,5.71,3.91,5.7,5.7,0,0,0-.87,3.03,5.645,5.645,0,0,0,.4,2.1A81.93,81.93,0,0,1,67.46,44.5a17.961,17.961,0,0,0-15.01-.62c-8.04-3.52-17.61-12.33-21.97-16.6a5.836,5.836,0,0,0,.22-1.57,5.655,5.655,0,0,0-.62-2.59,27.487,27.487,0,0,0,5.66-4.45c3.68-3.62,5.95-7.27,5.08-8.16s-4.56,1.33-8.24,4.95a28.041,28.041,0,0,0-4.46,5.46,5.682,5.682,0,0,0-5.52-.43l.09-.07a28.862,28.862,0,0,0-3.75-5.67c-3.27-3.99-6.7-6.59-7.66-5.8s.91,4.66,4.18,8.65a29.253,29.253,0,0,0,4.77,4.74l.28-.22a5.672,5.672,0,0,0-.67,6.18,27.967,27.967,0,0,0-5.61,4.42c-3.68,3.62-5.95,7.27-5.08,8.15s4.56-1.33,8.24-4.95a28.6,28.6,0,0,0,4.44-5.42,5.715,5.715,0,0,0,3.14.94,5.518,5.518,0,0,0,1.91-.33A82.173,82.173,0,0,1,43.64,51.66a17.867,17.867,0,0,0-2.34,8.87,18.062,18.062,0,0,0,1.6,7.42c-3.48,7.88-11.92,17.18-16.22,21.62a5.724,5.724,0,0,0-4.59.52,26.718,26.718,0,0,0-5-5.65c-3.86-3.42-7.66-5.45-8.48-4.52s1.64,4.46,5.5,7.88a27.344,27.344,0,0,0,6.01,4.21,5.7,5.7,0,0,0-.87,3.03,5.586,5.586,0,0,0,.57,2.45,29.207,29.207,0,0,0-5.31,3.93c-3.82,3.47-6.25,7.02-5.41,7.94s4.61-1.15,8.43-4.61a29.809,29.809,0,0,0,4.41-4.87,5.717,5.717,0,0,0,6.03.06,29.073,29.073,0,0,0,4.6,5.01c3.86,3.42,7.65,5.45,8.48,4.52s-1.64-4.46-5.5-7.88a29.1,29.1,0,0,0-5.46-3.93,5.745,5.745,0,0,0,.63-2.61,5.551,5.551,0,0,0-.29-1.79A81.658,81.658,0,0,1,50.96,76.48a17.955,17.955,0,0,0,16.72-.03c7.92,4,16.99,12.86,20.99,17.01a5.608,5.608,0,0,0-.23,1.59,5.731,5.731,0,0,0,.68,2.71,28.8,28.8,0,0,0-5.35,4.42c-3.61,3.69-5.81,7.38-4.92,8.25s4.53-1.42,8.14-5.11a28.934,28.934,0,0,0,4.24-5.36,5.727,5.727,0,0,0,2.93.81,5.654,5.654,0,0,0,2.99-.87,29.719,29.719,0,0,0,4.44,4.88c3.83,3.45,7.61,5.51,8.44,4.59s-1.6-4.47-5.43-7.93a29.351,29.351,0,0,0-5.31-3.9,5.621,5.621,0,0,0-.06-5.17,27.108,27.108,0,0,0,5.76-4.66c3.61-3.69,5.81-7.39,4.92-8.25s-4.53,1.42-8.14,5.11a27.732,27.732,0,0,0-4.44,5.7,5.678,5.678,0,0,0-3.18-.96,5.581,5.581,0,0,0-1.88.32A81.527,81.527,0,0,1,75.62,68a17.958,17.958,0,0,0-.14-15.25c4.24-8.28,13.85-17.79,17.74-21.46a5.658,5.658,0,0,0,1.31.15,5.724,5.724,0,0,0,3.33-1.07,27.916,27.916,0,0,0,4.87,5.18c3.93,3.35,7.76,5.3,8.57,4.35.83-.96-1.7-4.44-5.62-7.79m-80.67-5.2a1.29,1.29,0,1,1,1.29-1.29,1.293,1.293,0,0,1-1.29,1.29m.07,69.32a1.29,1.29,0,1,1,1.29-1.29,1.293,1.293,0,0,1-1.29,1.29m69.06-2.48a1.29,1.29,0,1,1-1.29,1.29,1.293,1.293,0,0,1,1.29-1.29m.46-66.84a1.29,1.29,0,1,1,1.29-1.29,1.293,1.293,0,0,1-1.29,1.29" transform="translate(-8.449 -8.809)" fill="#1da912"/>
</svg>
